<?xml version="1.0" encoding="UTF-8"?>
<!DOCTYPE svg PUBLIC "-//W3C//DTD SVG 1.1//EN" "http://www.w3.org/Graphics/SVG/1.1/DTD/svg11.dtd">
<!-- Creator: CorelDRAW 2018 (64-Bit Evaluation Version) -->
<svg xmlns="http://www.w3.org/2000/svg" xml:space="preserve" width="8.01038in" height="12.3797in" version="1.1" style="shape-rendering:geometricPrecision; text-rendering:geometricPrecision; image-rendering:optimizeQuality; fill-rule:evenodd; clip-rule:evenodd"
viewBox="0 0 898.8 1389.06"
 xmlns:xlink="http://www.w3.org/1999/xlink">
 <defs>
  <style type="text/css">
   <![CDATA[
    .fil0 {fill:#F2F2F2;fill-rule:nonzero}
   ]]>
  </style>
 </defs>
 <g id="Layer_x0020_1">
  <metadata id="CorelCorpID_0Corel-Layer"/>
  <g id="_1943646187728">
   <path class="fil0" d="M2.86 694.53l16.23 0 -19.09 19.08 0 -16.22 2.86 -2.86zm132.42 0l15.62 0 -44.28 44.26 195.94 196.01 -8.04 8.08 -196.08 -195.91 -76.13 76.1 28.2 28.2 -8.01 7.96 -28.18 -28.18 -11.71 11.7 -2.61 -2.59 0 -10.39 135.28 -135.24zm269.02 0l20.61 0 25.69 25.67 -7.99 7.96 -28.21 -28.16 -11.68 11.68 -7.82 -7.75 9.4 -9.4zm173.01 0l16.21 0 109.13 109.15 -8.04 8.06 -117.29 -117.21zm123.59 0l16.19 0 75.53 75.51 75.52 -75.51 15.62 0 -187.34 187.29 -7.77 -7.82 11.72 -11.72 -28.18 -28.17 7.99 -7.94 28.17 28.13 76.13 -76.12 -83.58 -83.65zm197.91 105.97l0 16.23 -87.61 87.57 -8.08 -8.13 95.68 -95.67zm0 132.34l0 15.6 -48.19 48.18 28.27 28.19 -8.06 8.03 -28.2 -28.23 -11.69 11.69 -7.82 -7.77 75.69 -75.69zm0 306.34l0 15.58 -42.66 -42.66 -28.2 28.14 -7.99 -7.92 28.22 -28.19 -11.75 -11.75 7.77 -7.84 54.62 54.64zm0 82.56l0 16.29 -51.07 51.03 -16.28 0 67.34 -67.33zm-188.4 67.33l-15.61 0 22.89 -22.88 -195.87 -196 8.11 -8.06 195.89 195.94 76.21 -76.18 -28.19 -28.16 7.87 -7.99 28.26 28.22 11.75 -11.74 7.77 7.75 -119.08 119.11zm-195.79 0l-12.94 0 -21.77 -21.73 -21.72 21.73 -15.53 0 49.16 -49.17 7.75 7.77 -11.72 11.72 28.19 28.24 -1.44 1.44zm-188.24 0l-16.15 0 157.65 -157.65 -76.17 -76.18 -28.16 28.13 -7.97 -7.87 28.18 -28.22 -11.73 -11.73 7.82 -7.77 199.87 199.85 -7.89 7.75 -11.69 -11.7 -28.14 28.17 -8.04 -8.01 28.2 -28.15 -76.12 -76.13 -149.65 149.51zm-137.16 0l-24.48 0 -23.73 -23.73 7.94 -8.01 28.22 28.19 76.13 -76.12 -195.87 -196.02 8.04 -8.08 196 195.93 76.19 -76.18 -28.21 -28.13 7.92 -8.01 28.22 28.22 11.74 -11.74 7.77 7.84 -175.87 175.85zm-79.2 0l-15.65 0 -18.44 -18.45 -18.46 18.45 -16.25 0 26.58 -26.58 -67.79 -67.81 0 -15.65 110.02 110.04zm-110.02 -209.4l0 -16.25 171.46 171.49 -8.09 8.06 -163.37 -163.3zm0 -65.25l0 -15.57 63.57 -63.57 7.78 7.79 -11.72 11.72 28.23 28.22 -7.97 7.96 -28.22 -28.22 -51.67 51.67zm0 -131.74l0 -16.19 39.68 -39.67 -39.68 -39.68 0 -15.64 151.43 151.5 -7.8 7.77 -11.72 -11.72 -28.17 28.18 -7.97 -7.99 28.18 -28.15 -76.17 -76.17 -47.78 47.75zm655.11 -38.9l28.13 -28.19 -76.15 -76.15 -196 195.92 -8.08 -8.04 195.98 -195.97 -76.21 -76.21 -28.14 28.17 -7.99 -7.89 28.2 -28.22 -11.74 -11.74 7.77 -7.8 199.88 199.89 -7.84 7.73 -11.69 -11.69 -28.18 28.17 -7.94 -7.98zm-176.35 212.11l-28.19 -28.18 76.11 -76.13 196.02 195.9 8.08 -8.06 -195.95 -196 76.18 -76.2 28.23 28.18 7.89 -7.94 -28.16 -28.2 11.68 -11.68 -7.77 -7.77 -199.84 199.85 7.8 7.77 11.73 -11.74 28.17 28.13 8.01 -7.94zm-198.69 -198.66l28.19 28.19 76.17 -76.17 -195.92 -195.96 8.04 -8.15 195.99 195.99 76.18 -76.18 -28.23 -28.2 8.01 -7.96 28.16 28.22 11.74 -11.74 7.77 7.79 -199.87 199.82 -7.75 -7.75 11.7 -11.7 -28.13 -28.19 7.94 -8.01z"/>
   <path class="fil0" d="M2.86 694.53l16.23 0 -19.09 -19.08 0 16.22 2.86 2.86zm132.42 0l15.62 0 -44.28 -44.26 195.94 -196.01 -8.04 -8.08 -196.08 195.91 -76.13 -76.1 28.2 -28.2 -8.01 -7.96 -28.18 28.18 -11.71 -11.7 -2.61 2.59 0 10.39 135.28 135.24zm269.02 0l20.61 0 25.69 -25.67 -7.99 -7.96 -28.21 28.16 -11.68 -11.68 -7.82 7.75 9.4 9.4zm173.01 0l16.21 0 109.13 -109.15 -8.04 -8.06 -117.29 117.21zm123.59 0l16.19 0 75.53 -75.51 75.52 75.51 15.62 0 -187.34 -187.29 -7.77 7.82 11.72 11.72 -28.18 28.17 7.99 7.94 28.17 -28.13 76.13 76.12 -83.58 83.65zm197.91 -105.97l0 -16.23 -87.61 -87.57 -8.08 8.13 95.68 95.67zm0 -132.34l0 -15.6 -48.19 -48.18 28.27 -28.19 -8.06 -8.03 -28.2 28.23 -11.69 -11.69 -7.82 7.77 75.69 75.69zm0 -306.34l0 -15.58 -42.66 42.66 -28.2 -28.14 -7.99 7.92 28.22 28.19 -11.75 11.75 7.77 7.84 54.62 -54.64zm0 -82.56l0 -16.29 -51.07 -51.03 -16.28 0 67.34 67.33zm-188.4 -67.33l-15.61 0 22.89 22.88 -195.87 196 8.11 8.06 195.89 -195.94 76.21 76.18 -28.19 28.16 7.87 7.99 28.26 -28.22 11.75 11.74 7.77 -7.75 -119.08 -119.11zm-195.79 0l-12.94 0 -21.77 21.73 -21.72 -21.73 -15.53 0 49.16 49.17 7.75 -7.77 -11.72 -11.72 28.19 -28.24 -1.44 -1.44zm-188.24 0l-16.15 0 157.65 157.65 -76.17 76.18 -28.16 -28.13 -7.97 7.87 28.18 28.22 -11.73 11.73 7.82 7.77 199.87 -199.85 -7.89 -7.75 -11.69 11.7 -28.14 -28.17 -8.04 8.01 28.2 28.15 -76.12 76.13 -149.65 -149.51zm-137.16 0l-24.48 0 -23.73 23.73 7.94 8.01 28.22 -28.19 76.13 76.12 -195.87 196.02 8.04 8.08 196 -195.93 76.19 76.18 -28.21 28.13 7.92 8.01 28.22 -28.22 11.74 11.74 7.77 -7.84 -175.87 -175.85zm-79.2 0l-15.65 0 -18.44 18.45 -18.46 -18.45 -16.25 0 26.58 26.58 -67.79 67.81 0 15.65 110.02 -110.04zm-110.02 209.4l0 16.25 171.46 -171.49 -8.09 -8.06 -163.37 163.3zm0 65.25l0 15.57 63.57 63.57 7.78 -7.79 -11.72 -11.72 28.23 -28.22 -7.97 -7.96 -28.22 28.22 -51.67 -51.67zm0 131.74l0 16.19 39.68 39.67 -39.68 39.68 0 15.64 151.43 -151.5 -7.8 -7.77 -11.72 11.72 -28.17 -28.18 -7.97 7.99 28.18 28.15 -76.17 76.17 -47.78 -47.75zm655.11 38.9l28.13 28.19 -76.15 76.15 -196 -195.92 -8.08 8.04 195.98 195.97 -76.21 76.21 -28.14 -28.17 -7.99 7.89 28.2 28.22 -11.74 11.74 7.77 7.8 199.88 -199.89 -7.84 -7.73 -11.69 11.69 -28.18 -28.17 -7.94 7.98zm-176.35 -212.11l-28.19 28.18 76.11 76.13 196.02 -195.9 8.08 8.06 -195.95 196 76.18 76.2 28.23 -28.18 7.89 7.94 -28.16 28.2 11.68 11.68 -7.77 7.77 -199.84 -199.85 7.8 -7.77 11.73 11.74 28.17 -28.13 8.01 7.94zm-198.69 198.66l28.19 -28.19 76.17 76.17 -195.92 195.96 8.04 8.15 195.99 -195.99 76.18 76.18 -28.23 28.2 8.01 7.96 28.16 -28.22 11.74 11.74 7.77 -7.79 -199.87 -199.82 -7.75 7.75 11.7 11.7 -28.13 28.19 7.94 8.01z"/>
  </g>
 </g>
</svg>
